<svg xmlns="http://www.w3.org/2000/svg" version="1.1" xmlns:xlink="http://www.w3.org/1999/xlink" width="1000" height="1000"><style>
    #light-icon {
      display: inline;
    }
    #dark-icon {
      display: none;
    }

    @media (prefers-color-scheme: dark) {
      #light-icon {
        display: none;
      }
      #dark-icon {
        display: inline;
      }
    }
  </style><g id="light-icon"><svg xmlns="http://www.w3.org/2000/svg" version="1.1" xmlns:xlink="http://www.w3.org/1999/xlink" width="1000" height="1000"><g><g transform="matrix(1.1758066033298842,0,0,1.1758066033298842,5.684341886080802e-14,182.94374941209674)"><svg xmlns="http://www.w3.org/2000/svg" version="1.1" xmlns:xlink="http://www.w3.org/1999/xlink" width="850.48" height="539.3"><svg id="Layer_2" data-name="Layer 2" xmlns="http://www.w3.org/2000/svg" viewBox="0 0 850.48 539.3">
  <defs>
    <style>
      .cls-1 {
        font-size: 60px;
      }

      .cls-1, .cls-2 {
        font-family: GveretLevinAlefAlefAlef-Regular, 'Gveret Levin AlefAlefAlef';
      }

      .cls-1, .cls-2, .cls-3, .cls-4 {
        fill: #004a6a;
      }

      .cls-2 {
        font-size: 204.35px;
      }

      .cls-2, .cls-4 {
        stroke: #004a6a;
        stroke-miterlimit: 10;
        stroke-width: .71px;
      }

      .cls-5 {
        fill: none;
      }

      .cls-6 {
        fill: #a2d9f5;
        fill-rule: evenodd;
      }

      .cls-4 {
        font-family: MyriadHebrew-Regular, 'Myriad Hebrew';
        font-size: 157.08px;
      }
    </style>
  </defs>
  <g id="Layer_1-2" data-name="Layer 1">
    <g>
      <g>
        <g>
          <path class="cls-6" d="M601.57,346.24c46.7,0,90.4,2.95,127.76,8.09,41.27,7.82,67.37,19.39,67.37,32.27,0,4.5-3.19,8.83-9.1,12.9-8.44-21.78-88.5-38.87-186.03-38.87s-177.6,17.09-186.04,38.87c-5.9-4.07-9.1-8.4-9.1-12.9,0-12.88,26.11-24.45,67.38-32.27,37.35-5.14,81.05-8.09,127.77-8.09h0ZM850.46,403.16l.02.17c0,31.52-111.47,57.07-248.91,57.07s-248.91-25.55-248.91-57.07v-.17c22.43,16.25,76.99,29.44,147.47,36.01,29.21,4.33,64.04,6.84,101.45,6.84s72.22-2.51,101.44-6.84c70.46-6.57,125.04-19.76,147.45-36.01Z"></path>
          <path class="cls-6" d="M601.57,369.96c21.73,0,42.05,1.38,59.43,3.76,19.2,3.64,31.33,9.02,31.33,15.02,0,2.09-1.48,4.11-4.23,6-3.93-10.13-41.17-18.08-86.53-18.08s-82.62,7.95-86.54,18.08c-2.75-1.89-4.24-3.91-4.24-6,0-6,12.14-11.37,31.34-15.02,17.38-2.38,37.7-3.76,59.44-3.76h0ZM717.36,396.43v.08c0,14.67-51.85,26.55-115.78,26.55s-115.79-11.88-115.79-26.55v-.08c10.43,7.56,35.82,13.7,68.59,16.75,13.6,2.02,29.79,3.18,47.2,3.18s33.59-1.17,47.18-3.18c32.79-3.05,58.17-9.19,68.61-16.75Z"></path>
        </g>
        <path class="cls-6" d="M507.55,262.19c6.56-100.2,60.4-107.55,97.24-217.07,36.84,109.52,90.68,116.86,97.24,217.07,10.07,153.66-204.55,153.66-194.48,0Z"></path>
        <g>
          <path class="cls-5" d="M522.07,263.44c-2.6,39.77,11.27,70.96,39.06,87.83,26.15,15.87,61.3,15.87,87.46,0,27.06-16.42,40.8-46.49,39.11-84.76h-82.84V85.24c-13.45,29.93-27.9,50.99-41.05,70.16-21.41,31.21-38.33,55.86-41.74,108.04Z"></path>
          <path class="cls-3" d="M648.59,351.27c-26.15,15.87-61.3,15.87-87.46,0-27.79-16.87-41.67-48.06-39.06-87.83,1.41-21.6,5.14-38.49,10.55-53.07,6.64-17.92,12.94-26.2,31.2-54.97,24.62-38.81,36.94-58.22,41.05-70.16,6.33-18.37,10.69-46.05,0-85.24l-13.72,40.81c-15.56,46.24-34.5,73.85-51.21,98.21-22.02,32.1-42.83,62.42-46.76,122.53-3.3,50.34,15.99,92.07,52.93,114.48,17.85,10.83,38.3,16.24,58.75,16.24s40.91-5.41,58.75-16.24c35.7-21.66,54.71-61.44,52.98-109.52.73-10.21-4.3-18.54-9.99-19.89-6.79-1.62-17.62,5.99-18.92,19.89,4.94,33.78-10.44,67.36-39.11,84.76Z"></path>
        </g>
        <text class="cls-2" transform="translate(22.54 319.29) scale(1.24 1)"><tspan x="0" y="0">הרה</tspan></text>
        <text class="cls-4" transform="translate(21.73 441.95) scale(1.62 1)"><tspan x="0" y="0">VIP</tspan></text>
      </g>
      <text class="cls-1" transform="translate(.24 516.8) scale(1.24 1)"><tspan x="0" y="0">מרכז חסידי מקצועי למשפחה</tspan></text>
    </g>
  </g>
</svg></svg></g></g></svg></g><g id="dark-icon"><svg xmlns="http://www.w3.org/2000/svg" version="1.1" xmlns:xlink="http://www.w3.org/1999/xlink" width="1000" height="1000"><g clip-path="url(#SvgjsClipPath1012)"><rect width="1000" height="1000" fill="#ffffff"></rect><g transform="matrix(0.823064622330919,0,0,0.823064622330919,150,278.0606245884677)"><svg xmlns="http://www.w3.org/2000/svg" version="1.1" xmlns:xlink="http://www.w3.org/1999/xlink" width="850.48" height="539.3"><svg id="Layer_2" data-name="Layer 2" xmlns="http://www.w3.org/2000/svg" viewBox="0 0 850.48 539.3">
  <defs>
    <style>
      .cls-1 {
        font-size: 60px;
      }

      .cls-1, .cls-2 {
        font-family: GveretLevinAlefAlefAlef-Regular, 'Gveret Levin AlefAlefAlef';
      }

      .cls-1, .cls-2, .cls-3, .cls-4 {
        fill: #004a6a;
      }

      .cls-2 {
        font-size: 204.35px;
      }

      .cls-2, .cls-4 {
        stroke: #004a6a;
        stroke-miterlimit: 10;
        stroke-width: .71px;
      }

      .cls-5 {
        fill: none;
      }

      .cls-6 {
        fill: #a2d9f5;
        fill-rule: evenodd;
      }

      .cls-4 {
        font-family: MyriadHebrew-Regular, 'Myriad Hebrew';
        font-size: 157.08px;
      }
    </style>
  <clipPath id="SvgjsClipPath1012"><rect width="1000" height="1000" x="0" y="0" rx="350" ry="350"></rect></clipPath></defs>
  <g id="Layer_1-2" data-name="Layer 1">
    <g>
      <g>
        <g>
          <path class="cls-6" d="M601.57,346.24c46.7,0,90.4,2.95,127.76,8.09,41.27,7.82,67.37,19.39,67.37,32.27,0,4.5-3.19,8.83-9.1,12.9-8.44-21.78-88.5-38.87-186.03-38.87s-177.6,17.09-186.04,38.87c-5.9-4.07-9.1-8.4-9.1-12.9,0-12.88,26.11-24.45,67.38-32.27,37.35-5.14,81.05-8.09,127.77-8.09h0ZM850.46,403.16l.02.17c0,31.52-111.47,57.07-248.91,57.07s-248.91-25.55-248.91-57.07v-.17c22.43,16.25,76.99,29.44,147.47,36.01,29.21,4.33,64.04,6.84,101.45,6.84s72.22-2.51,101.44-6.84c70.46-6.57,125.04-19.76,147.45-36.01Z"></path>
          <path class="cls-6" d="M601.57,369.96c21.73,0,42.05,1.38,59.43,3.76,19.2,3.64,31.33,9.02,31.33,15.02,0,2.09-1.48,4.11-4.23,6-3.93-10.13-41.17-18.08-86.53-18.08s-82.62,7.95-86.54,18.08c-2.75-1.89-4.24-3.91-4.24-6,0-6,12.14-11.37,31.34-15.02,17.38-2.38,37.7-3.76,59.44-3.76h0ZM717.36,396.43v.08c0,14.67-51.85,26.55-115.78,26.55s-115.79-11.88-115.79-26.55v-.08c10.43,7.56,35.82,13.7,68.59,16.75,13.6,2.02,29.79,3.18,47.2,3.18s33.59-1.17,47.18-3.18c32.79-3.05,58.17-9.19,68.61-16.75Z"></path>
        </g>
        <path class="cls-6" d="M507.55,262.19c6.56-100.2,60.4-107.55,97.24-217.07,36.84,109.52,90.68,116.86,97.24,217.07,10.07,153.66-204.55,153.66-194.48,0Z"></path>
        <g>
          <path class="cls-5" d="M522.07,263.44c-2.6,39.77,11.27,70.96,39.06,87.83,26.15,15.87,61.3,15.87,87.46,0,27.06-16.42,40.8-46.49,39.11-84.76h-82.84V85.24c-13.45,29.93-27.9,50.99-41.05,70.16-21.41,31.21-38.33,55.86-41.74,108.04Z"></path>
          <path class="cls-3" d="M648.59,351.27c-26.15,15.87-61.3,15.87-87.46,0-27.79-16.87-41.67-48.06-39.06-87.83,1.41-21.6,5.14-38.49,10.55-53.07,6.64-17.92,12.94-26.2,31.2-54.97,24.62-38.81,36.94-58.22,41.05-70.16,6.33-18.37,10.69-46.05,0-85.24l-13.72,40.81c-15.56,46.24-34.5,73.85-51.21,98.21-22.02,32.1-42.83,62.42-46.76,122.53-3.3,50.34,15.99,92.07,52.93,114.48,17.85,10.83,38.3,16.24,58.75,16.24s40.91-5.41,58.75-16.24c35.7-21.66,54.71-61.44,52.98-109.52.73-10.21-4.3-18.54-9.99-19.89-6.79-1.62-17.62,5.99-18.92,19.89,4.94,33.78-10.44,67.36-39.11,84.76Z"></path>
        </g>
        <text class="cls-2" transform="translate(22.54 319.29) scale(1.24 1)"><tspan x="0" y="0">הרה</tspan></text>
        <text class="cls-4" transform="translate(21.73 441.95) scale(1.62 1)"><tspan x="0" y="0">VIP</tspan></text>
      </g>
      <text class="cls-1" transform="translate(.24 516.8) scale(1.24 1)"><tspan x="0" y="0">מרכז חסידי מקצועי למשפחה</tspan></text>
    </g>
  </g>
</svg></svg></g></g></svg></g></svg>